<!--
  班级助理 · 浏览器标签页图标（favicon）
  与标准版同源，按 64/512 = 0.125 等比缩放；标签页会自绘外框，
  故这里对底板做 rx=14 圆角（与站内 7 个 HTML 内联 favicon 的几何一致），
  便于直接替换已有的 data URI。

  【结构注意】缩放挂在最外层 wrapper，被蒙版引用的 <g> 自身不带 transform。
  早先把 scale(0.125) 和 mask 写在同一个 <g> 上，浏览器会把 mask 的
  userSpaceOnUse 区域解释到缩放后的局部坐标，蒙版只剩画布左上角约 8×8 一块，
  整本书被裁掉（气泡在蒙版组之外所以还在）。蒙版里的气泡路径必须写画布空间坐标。
-->
<svg xmlns="http://www.w3.org/2000/svg" viewBox="0 0 64 64" width="64" height="64" role="img" aria-label="班级助理">
  <defs>
    <linearGradient id="ca-bg" x1="0.281" y1="-0.103" x2="0.719" y2="1.103">
      <stop offset="0" stop-color="#4aa3ff"/>
      <stop offset="0.55" stop-color="#007aff"/>
      <stop offset="1" stop-color="#0060cc"/>
    </linearGradient>

    <mask id="ca-knockout" maskUnits="userSpaceOnUse" x="-256" y="-256" width="1024" height="1024">
      <rect x="-256" y="-256" width="1024" height="1024" fill="#ffffff"/>
      <path d="M282,93 H390 A30,30 0 0 1 420,123 V175 A30,30 0 0 1 390,205 H338 L292,241 L304,205 H282 A30,30 0 0 1 252,175 V123 A30,30 0 0 1 282,93 Z"
            fill="#000000" stroke="#000000" stroke-width="36" stroke-linejoin="round" stroke-linecap="round"/>
    </mask>
  </defs>

  <rect width="64" height="64" rx="14" fill="url(#ca-bg)"/>

  <!-- 画布空间作图，整体缩到 64（描边 23 → 2.875） -->
  <g transform="scale(0.125)">
    <g mask="url(#ca-knockout)" fill="none" stroke="#ffffff" stroke-width="23"
       stroke-linecap="round" stroke-linejoin="round">
      <path d="M92,175 A172,172 0 0 1 232,208 L232,387 A172,172 0 0 0 92,354 Z"/>
      <path d="M372,175 A172,172 0 0 0 232,208 L232,387 A172,172 0 0 1 372,354 Z"/>
    </g>

    <path d="M282,93 H390 A30,30 0 0 1 420,123 V175 A30,30 0 0 1 390,205 H338 L292,241 L304,205 H282 A30,30 0 0 1 252,175 V123 A30,30 0 0 1 282,93 Z"
          fill="none" stroke="#ffffff" stroke-width="23" stroke-linejoin="round" stroke-linecap="round"/>
  </g>
</svg>
